<svg xmlns="http://www.w3.org/2000/svg" viewBox="0 0 256 256">
  <!-- Background square -->
  <rect width="256" height="256" fill="#F7DF1E"></rect>

  <!-- JS letters -->
  <path d="M67 213l19-11c4 7 8 13 17 13 9 0 14-4 14-18V116h24v83c0 25-15 36-36 36-19 0-30-10-38-22Zm78-3l19-11c5 9 11 14 22 14 9 0 15-4 15-11 0-8-6-11-18-16l-6-3c-18-8-30-17-30-37 0-18 14-32 36-32 16 0 27 6 35 20l-18 12c-4-8-9-11-17-11-8 0-13 5-13 11 0 8 5 11 16 16l6 3c21 9 33 18 33 39 0 22-18 35-42 35-24 0-39-11-47-25Z" fill="#000000"></path>
</svg>
