<svg xmlns="http://www.w3.org/2000/svg" viewBox="0 0 256 256" fill="none">
  <!-- Bag body -->
  <path d="M64 80h128l-12 120H76L64 80Z" fill="#95BF47"></path>

  <!-- Bag handle -->
  <path d="M96 80c0-32 20-56 32-56s32 24 32 56h-16c0-24-10-40-16-40s-16 16-16 40H96Z" fill="#7AB55C"></path>

  <!-- Shopify S -->
  <path d="M128 108c-18 0-30 12-30 26h16c0-6 6-10 14-10s14 4 14 10c0 6-6 10-20 14-18 6-26 14-26 28 0 18 14 28 34 28s34-10 34-28h-16c0 6-8 10-18 10s-18-4-18-10c0-6 6-10 18-14 20-6 28-14 28-28 0-16-12-26-30-26Z" fill="#ffffff"></path>
</svg>
